<?xml version="1.0" standalone="no"?>
<!DOCTYPE svg PUBLIC "-//W3C//DTD SVG 20010904//EN" "http://www.w3.org/TR/2001/REC-SVG-20010904/DTD/svg10.dtd">
<svg version="1.0" xmlns="http://www.w3.org/2000/svg"
 width="5000.000000pt" height="5000.000000pt" viewBox="0 0 5000.000000 5000.000000"
 preserveAspectRatio="xMidYMid meet">
<g transform="translate(0.000000,5000.000000) scale(0.100000,-0.100000)"
fill="#40E0D0" stroke="none">
<path d="M21205 49989 c-265 -27 -486 -123 -651 -281 -100 -96 -170 -195 -234
-331 -61 -129 -104 -272 -175 -579 -247 -1067 -500 -2702 -810 -5227 -36 -294
-66 -535 -68 -536 -1 -1 -101 -35 -222 -75 -780 -258 -1682 -633 -2476 -1031
-143 -71 -265 -127 -270 -123 -6 3 -473 365 -1037 803 -2311 1794 -3433 2662
-3515 2720 -108 77 -285 170 -398 209 -202 71 -424 81 -589 28 -185 -60 -455
-211 -749 -421 -618 -440 -1424 -1167 -2566 -2316 -1101 -1108 -1748 -1801
-2286 -2449 -359 -432 -523 -657 -624 -858 -98 -193 -135 -331 -135 -502 0
-199 53 -367 182 -578 55 -90 94 -141 363 -467 1221 -1482 2285 -2854 3073
-3958 l184 -259 -87 -166 c-472 -906 -842 -1774 -1104 -2592 -40 -124 -76
-228 -79 -232 -4 -4 -443 -72 -977 -153 -3836 -577 -5087 -768 -5140 -781
-159 -42 -299 -128 -433 -269 -119 -124 -181 -212 -253 -360 -63 -129 -102
-260 -119 -395 -14 -117 -14 -7382 0 -7500 35 -287 154 -535 349 -731 162
-161 336 -252 561 -293 47 -9 1106 -166 2355 -351 3535 -521 3617 -533 3622
-539 3 -2 43 -125 88 -273 286 -920 687 -1878 1153 -2762 51 -95 92 -178 92
-183 0 -35 -938 -1264 -1770 -2318 -900 -1141 -1444 -1852 -1659 -2170 -209
-309 -273 -570 -226 -922 31 -233 105 -403 278 -638 829 -1124 2539 -2864
5145 -5235 304 -276 357 -317 507 -390 170 -83 251 -100 475 -100 244 0 374
27 555 116 102 50 36 2 1077 794 2026 1541 3752 2848 3762 2848 6 0 142 -63
301 -140 774 -376 1465 -658 2398 -979 185 -64 229 -83 232 -99 3 -11 162
-1055 355 -2320 562 -3698 579 -3807 599 -3870 109 -353 434 -629 856 -728
l90 -22 3725 -3 c2618 -2 3759 0 3840 8 441 41 733 238 910 614 61 128 104
-272 175 578 247 1067 500 2702 810 5227 36 294 66 535 68 536 1 1 101 35 222
75 781 258 1682 633 2477 1031 l260 130 36 -28 c56 -42 1486 -1161 3049 -2385
772 -604 1436 -1118 1477 -1143 344 -209 701 -292 952 -220 318 92 760 378
1378 894 529 441 1011 895 1947 1830 628 629 1019 1032 1385 1426 517 559
1016 1140 1282 1495 64 85 135 178 158 205 162 195 244 430 244 697 0 246 -66
445 -225 683 -29 44 -158 208 -286 365 -1357 1663 -2374 2972 -3113 4003
l-178 248 160 317 c360 713 718 1559 1029 2427 41 116 78 213 81 217 4 4 1362
-212 3017 463 1656 251 3037 463 3070 471 196 49 335 132 482 288 171 181 287
401 341 650 16 76 17 304 17 3836 0 3553 -1 3760 -18 3842 -51 254 -159 459
-335 637 -159 161 -329 250 -562 295 -86 16 -5950 916 -5971 916 -4 0 -40 98
-80 218 -305 920 -725 1923 -1150 2748 -60 116 -109 216 -109 222 0 39 909
1231 1770 2322 892 1130 1445 1854 1659 2170 185 273 250 491 238 791 -8 199
-40 334 -112 479 -34 67 -224 328 -419 575 -622 788 -1684 1907 -3196 3370
-341 330 -1613 1525 -1853 1742 -119 108 -334 234 -472 277 -139 44 -218 56
-363 56 -306 0 -527 -76 -732 -251 -30 -25 -676 -514 -1435 -1086 -759 -572
-1795 -1353 -2303 -1736 l-923 -696 -227 111 c-820 398 -1504 678 -2475 1014
-185 64 -229 82 -232 99 -3 11 -155 1010 -340 2220 -184 1210 -393 2585 -465
3055 -71 470 -137 879 -145 907 -106 358 -442 641 -879 741 -65 15 -388 16
-3826 18 -2065 1 -3791 -2 -3835 -7z m6465 -8451 c239 -45 438 -118 635 -236
244 -146 500 -420 634 -681 128 -250 187 -475 198 -761 6 -180 -9 -317 -57
-500 -18 -67 -323 -894 -736 -1995 -388 -1034 -1064 -2834 -1501 -4000 -438
-1166 -798 -2128 -801 -2137 -4 -17 219 -18 4574 -18 4945 0 4682 3 4931 -51
227 -48 527 -168 730 -290 309 -187 625 -501 798 -793 227 -384 331 -741 342
-1172 12 -437 -74 -808 -274 -1182 -66 -124 -95 -167 -1083 -1610 -426 -623
-816 -1192 -865 -1264 -177 -259 -529 -774 -580 -848 -29 -41 -315 -460 -637
-930 -321 -470 -931 -1361 -1355 -1980 -423 -619 -833 -1217 -910 -1330 -77
-113 -688 -1006 -1358 -1985 -670 -979 -1280 -1870 -1355 -1980 -1542 -2253
-2417 -3533 -2778 -4060 -245 -357 -717 -1048 -1050 -1535 -333 -487 -645
-934 -693 -995 -342 -430 -823 -691 -1389 -756 -131 -15 -537 -6 -665 15 -388
62 -735 239 -1017 519 -287 286 -464 638 -523 1047 -23 152 -16 449 14 590 11
52 243 991 516 2085 273 1095 597 2395 720 2890 123 495 584 2344 1024 4109
441 1765 801 3213 801 3217 0 5 -2039 9 -4657 9 -3044 0 -4705 4 -4793 10
-192 15 -340 43 -510 99 -460 152 -837 445 -1106 861 -183 284 -314 714 -314
1034 0 78 1820 14699 1856 14911 110 646 536 1213 1129 1500 257 125 478 184
780 208 22 2 2560 3 5640 2 5054 -1 5608 -3 5685 -17z"/>
</g>
</svg>
