<svg class="svg-icon" style="width: 1em; height: 1em;vertical-align: middle;fill: currentColor;overflow: hidden;" viewBox="0 0 1024 1024" version="1.1" xmlns="http://www.w3.org/2000/svg"><path d="M381.377504 739.714331 733.842315 387.24955C803.829343 423.447654 887.066913 416.701904 940.551001 363.278078 981.748164 322.020654 995.661257 262.93522 983.253928 205.897607L892.367161 296.603679 811.418308 312.383898 713.484631 215.474131 730.348992 132.055865 820.392544 43.216918C763.354901 30.749328 704.149004 44.541958 663.012073 85.739151 609.467754 139.223208 602.842497 222.460809 639.040602 292.508068L286.57579 644.972849C216.528531 608.834977 133.29096 615.580727 79.806873 668.944321 38.60971 710.261977 24.696617 769.287179 37.164177 826.324792L127.990743 735.678952 208.879364 719.838501 306.933474 816.748268 290.008882 900.166534 199.965329 989.065712C256.942741 1001.473071 316.148638 987.740673 357.345801 946.483248 410.769656 892.999191 417.455145 809.76159 381.377504 739.714331ZM881.043945 771.937288 770.823403 735.919849 630.126597 595.223043 595.1933 630.15634 735.890106 770.732682 774.256495 883.482868 958.981298 993.884105 993.854363 959.01104 881.043945 771.937288ZM469.674395 336.656498 180.631586 46.529547C156.358955 22.196715 113.716259 25.208184 85.588945 53.636658L53.486452 85.678919C25.359137 114.107393 22.166972 156.689856 46.560036 181.143152L335.482412 471.270104 469.674395 336.656498Z"  /></svg>